<svg width="482" height="146" viewBox="0 0 482 146" fill="none" xmlns="http://www.w3.org/2000/svg">
<g clip-path="url(#clip0_2390_112457)">
<path d="M268.371 104.52C246.451 104.52 228.591 86.68 228.591 64.74C228.591 42.8 246.431 24.96 268.371 24.96C290.311 24.96 308.151 42.8 308.151 64.74C308.151 86.68 290.311 104.52 268.371 104.52ZM268.371 42.34C256.021 42.34 245.941 52.39 245.941 64.77C245.941 77.15 255.991 87.2 268.371 87.2C280.751 87.2 290.801 77.15 290.801 64.77C290.801 52.39 280.751 42.34 268.371 42.34Z" fill="white"/>
<path d="M48.5505 26.5703C45.4505 26.5703 42.5605 25.7203 40.1105 24.2203V102.96H56.9905V24.2203C54.5405 25.7203 51.6505 26.5703 48.5505 26.5703ZM58.4405 10.0903C58.4405 7.42027 57.4705 5.12028 55.5205 3.20028C53.5705 1.25028 51.2705 0.280273 48.6305 0.280273C45.9905 0.280273 43.6605 1.25028 41.7105 3.20028C39.7605 5.12028 38.7905 7.47027 38.7905 10.1903C38.7905 11.9403 39.2405 13.5603 40.1105 15.0603C40.9805 16.5803 42.1605 17.7603 43.6805 18.6303C45.1805 19.5003 46.8505 19.9503 48.7005 19.9503L48.6705 19.9203C51.2905 19.9203 53.5605 18.9503 55.5105 17.0003C57.4605 15.0503 58.4305 12.7503 58.4305 10.0803L58.4405 10.0903Z" fill="white"/>
<path d="M124.361 63.6502L124.411 103H141.581L141.531 63.6502C141.531 52.8102 137.891 43.5502 130.671 35.9302C123.421 28.3102 114.741 24.4902 104.561 24.4902C94.3806 24.4902 85.6806 28.3002 78.4506 35.9302C71.2006 43.5502 67.5906 52.7902 67.5906 63.6502V102.96H84.7606V63.6502C84.7606 57.5902 86.7006 52.3902 90.5606 48.0302C94.4406 43.6902 99.0906 41.5102 104.571 41.5102C110.051 41.5102 114.731 43.6902 118.581 48.0302C122.441 52.3902 124.381 57.5902 124.381 63.6502H124.361Z" fill="white"/>
<path d="M185.21 25.8501C178.6 25.8501 172.37 27.6801 166.97 30.9101V0.580078H149.98V70.4801C150.06 73.0801 150.45 76.8901 151.97 81.2101C154.51 88.4101 158.74 92.8801 160.37 94.4801C161.26 95.3501 163.5 97.4501 166.97 99.5001V99.4801C182.78 109.47 204.94 103.99 215.08 88.5301C218.59 83.5201 220.91 77.6201 221.84 71.5401C222.16 69.4701 222.32 67.3501 222.32 65.1901C222.32 43.4901 205.68 25.8501 185.21 25.8501ZM186.07 87.2101C175.52 87.2101 166.97 77.3001 166.97 65.0901C166.97 52.8801 175.52 42.9701 186.07 42.9701C196.62 42.9701 205.17 52.8701 205.17 65.0901C205.17 77.3101 196.62 87.2101 186.07 87.2101Z" fill="white"/>
<path d="M26.6906 15.6197C26.6906 15.6197 26.7006 15.6197 26.7106 15.6197C27.0006 15.5697 27.3106 15.5297 27.6206 15.4897C28.1206 15.4297 28.5606 15.4097 29.0206 15.3997C29.0306 15.3997 29.0406 15.3997 29.0606 15.3997C29.3906 15.3997 29.7306 15.3897 30.0606 15.3797C30.8606 15.3697 31.7906 15.3597 32.7106 15.3597C32.1406 13.6897 31.8406 11.8897 31.8406 10.0197C31.8406 6.44969 32.9406 3.14969 34.8606 0.429688H29.4706C19.9606 0.429688 12.7406 2.67969 7.77059 7.21969C2.83059 11.7097 0.350586 18.3097 0.350586 26.9497V102.97H17.2306V47.1997H30.0606V30.1497H17.2306V27.3997C17.2306 20.7097 20.3906 16.7797 26.7006 15.6297L26.6906 15.6197Z" fill="white"/>
<path d="M394.051 106.34C394.271 121.7 386.511 133.08 375.741 139.55C368.751 143.74 360.491 145.87 352.331 145.66C352.301 145.66 352.271 145.66 352.241 145.66C339.901 145.33 327.791 139.67 320.601 127.79L333.411 114.99C334.791 118.57 336.991 121.42 339.691 123.55C351.281 132.74 372.031 128.74 376.021 112.22C376.171 111.62 376.291 111.01 376.401 110.37C376.411 110.3 376.421 110.23 376.421 110.15C376.591 109.06 376.681 106.57 376.691 105.38C383.231 101.36 388.641 95.7296 394.031 90.3096V106.25C394.031 106.25 394.051 106.31 394.051 106.34Z" fill="#ACD039"/>
<path d="M369.09 81.58C365.13 85.29 359.68 87.18 354.29 87.2C341.91 87.2 331.861 77.15 331.861 64.77C331.861 52.39 341.93 42.34 354.29 42.34C366.03 42.11 376.521 52.25 376.701 63.99L391.07 49.62C385.11 35.16 370.88 24.96 354.29 24.96C332.34 24.96 314.51 42.8 314.51 64.74C314.51 86.68 332.37 104.52 354.29 104.52C364.52 104.52 373.841 100.64 380.891 94.28C394.021 81.02 412.311 63.14 425.361 49.57C429.071 45.32 435.89 42.17 441.85 42.34C454.23 42.34 464.28 52.39 464.28 64.77C464.28 77.15 454.23 87.2 441.85 87.2C429.47 87.2 420.001 77.71 419.451 65.82L405.171 80.1C411.191 94.44 425.37 104.53 441.85 104.53C463.8 104.53 481.63 86.69 481.63 64.75C481.63 42.81 463.79 24.97 441.85 24.97C436.72 24.97 431.611 25.96 426.871 27.9C418.441 30.93 412.971 38.11 406.681 44.12C394.131 56.59 381.71 69.18 369.1 81.58H369.09Z" fill="#ACD039"/>
<path d="M481.84 9.82043C481.84 11.3104 481.6 12.6404 481.11 13.8004C480.62 14.9604 479.98 15.9404 479.17 16.7504C478.36 17.5604 477.43 18.1704 476.36 18.6004C475.29 19.0204 474.18 19.2404 473.02 19.2404C471.86 19.2404 470.74 19.0304 469.68 18.6004C468.61 18.1804 467.68 17.5604 466.87 16.7504C466.06 15.9404 465.42 14.9604 464.93 13.8004C464.44 12.6404 464.2 11.3104 464.2 9.82043C464.2 8.33043 464.44 7.03043 464.93 5.86043C465.41 4.69043 466.06 3.71043 466.87 2.91043C467.68 2.11043 468.61 1.50043 469.68 1.08043C470.75 0.660433 471.86 0.44043 473.02 0.44043C474.18 0.44043 475.29 0.650433 476.36 1.08043C477.43 1.51043 478.36 2.12043 479.17 2.91043C479.98 3.71043 480.62 4.69043 481.11 5.86043C481.59 7.03043 481.84 8.35043 481.84 9.82043ZM480.3 9.82043C480.3 8.62043 480.12 7.53043 479.75 6.54043C479.39 5.55043 478.88 4.71043 478.24 4.00043C477.6 3.29043 476.83 2.76043 475.94 2.38043C475.05 2.00043 474.07 1.81043 473.02 1.81043C471.97 1.81043 470.99 2.00043 470.1 2.38043C469.21 2.76043 468.44 3.30043 467.8 4.00043C467.16 4.70043 466.66 5.55043 466.29 6.54043C465.92 7.53043 465.74 8.62043 465.74 9.82043C465.74 11.0204 465.92 12.1104 466.29 13.1004C466.66 14.0904 467.16 14.9304 467.8 15.6404C468.44 16.3504 469.21 16.8904 470.1 17.2804C470.99 17.6704 471.97 17.8604 473.02 17.8604C474.07 17.8604 475.05 17.6704 475.94 17.2804C476.83 16.8904 477.6 16.3404 478.24 15.6404C478.88 14.9404 479.38 14.0904 479.75 13.1004C480.11 12.1104 480.3 11.0204 480.3 9.82043ZM475.83 14.9704C475.38 14.1604 474.91 13.3804 474.43 12.6404C473.94 11.9004 473.52 11.3204 473.16 10.8904C473.04 10.9104 472.93 10.9204 472.82 10.9204H470.9V14.9804H469.47V4.92043C469.87 4.83043 470.32 4.76043 470.81 4.71043C471.3 4.66043 471.77 4.63043 472.2 4.63043C473.67 4.63043 474.8 4.90043 475.57 5.44043C476.34 5.98043 476.73 6.79043 476.73 7.88043C476.73 8.50043 476.56 9.06043 476.21 9.56043C475.86 10.0604 475.35 10.4204 474.68 10.6604C474.82 10.8204 475.01 11.0504 475.24 11.3804C475.47 11.7004 475.72 12.0604 475.98 12.4604C476.24 12.8604 476.5 13.2804 476.76 13.7304C477.02 14.1804 477.25 14.6004 477.44 14.9804H475.85L475.83 14.9704ZM470.89 9.74043H472.19C472.62 9.74043 473.02 9.71043 473.39 9.66043C473.75 9.61043 474.07 9.51043 474.34 9.36043C474.61 9.21043 474.82 9.02043 474.96 8.78043C475.11 8.54043 475.18 8.23043 475.18 7.84043C475.18 7.45043 475.1 7.17043 474.93 6.92043C474.76 6.67043 474.55 6.46043 474.28 6.31043C474.01 6.16043 473.7 6.04043 473.36 5.97043C473.02 5.90043 472.65 5.87043 472.27 5.87043C472.01 5.87043 471.76 5.87043 471.53 5.88043C471.3 5.88043 471.08 5.90043 470.89 5.92043V9.74043Z" fill="#015D6F"/>
</g>
<defs>
<clipPath id="clip0_2390_112457">
<rect width="481" height="146" fill="white" transform="translate(0.830078)"/>
</clipPath>
</defs>
</svg>
