<svg version="1.1" id="Layer_1" xmlns="http://www.w3.org/2000/svg" xmlns:xlink="http://www.w3.org/1999/xlink" x="0px" y="0px"
	 width="100%" viewBox="0 0 1080 1080" enable-background="new 0 0 1080 1080" xml:space="preserve">
<path fill="#FFEB0E" opacity="1.000000" stroke="none" 
	d="
M473.000000,1081.000000 
	C315.351471,1081.000000 158.202942,1081.000000 1.027204,1081.000000 
	C1.027204,721.059692 1.027204,361.119354 1.027204,1.089517 
	C360.898743,1.089517 720.797546,1.089517 1080.848145,1.089517 
	C1080.848145,360.999939 1080.848145,720.999939 1080.848145,1081.000000 
	C878.452209,1081.000000 675.976135,1081.000000 473.000000,1081.000000 
M471.001160,656.444336 
	C476.227448,646.826416 481.417084,637.188354 486.686340,627.594055 
	C509.605347,585.862732 532.547791,544.144287 555.481262,502.420929 
	C575.857300,465.350250 596.242798,428.284790 616.597717,391.202545 
	C619.639893,385.660339 622.537476,380.038788 625.786926,373.917053 
	C622.975342,373.917053 621.148438,373.917053 619.321533,373.917053 
	C568.836548,373.917053 518.350952,374.031952 467.867371,373.768951 
	C461.688507,373.736755 458.443390,375.246216 455.322327,381.022888 
	C428.749908,430.205170 401.699219,479.129059 374.785248,528.126770 
	C348.188538,576.546814 321.579132,624.959961 294.987183,673.382629 
	C288.951294,684.373779 282.964600,695.391968 276.626312,707.000183 
	C278.959320,707.000183 280.569305,707.000122 282.179260,707.000122 
	C334.163788,707.000122 386.148499,706.940918 438.132416,707.117432 
	C442.110962,707.130920 444.027161,705.761353 445.786865,702.495361 
	C453.970490,687.306396 462.362732,672.229797 471.001160,656.444336 
M158.331757,561.868774 
	C131.913940,610.105103 105.496140,658.341492 78.948120,706.815552 
	C80.019142,706.910156 80.502708,706.990173 80.986282,706.990234 
	C134.638031,706.997498 188.289871,706.958313 241.941238,707.101257 
	C245.141144,707.109802 246.220230,705.550720 247.448654,703.299377 
	C260.479370,679.417969 273.521332,655.542725 286.615692,631.696228 
	C309.692078,589.671143 332.811035,547.669495 355.904663,505.653839 
	C376.121002,468.873016 396.336792,432.091919 416.528992,395.297882 
	C420.305359,388.416626 423.969147,381.473602 427.916840,374.127472 
	C426.053040,374.025085 425.073029,373.924530 424.093018,373.924225 
	C397.600372,373.915894 371.107727,373.895538 344.615173,373.944000 
	C340.962219,373.950684 337.290619,374.131256 333.660553,374.530396 
	C311.438751,376.973785 291.110504,384.927460 272.228394,396.547424 
	C251.574753,409.257629 233.735336,424.995117 221.839630,446.581879 
	C200.782394,484.793823 179.793701,523.043518 158.331757,561.868774 
M641.998779,400.555603 
	C616.016724,447.975708 590.051147,495.404877 564.048035,542.813477 
	C536.608032,592.841797 509.129211,642.848816 481.676636,692.870300 
	C479.003418,697.741211 476.395874,702.648132 473.464020,708.082947 
	C499.143188,708.082947 523.958984,707.670715 548.754761,708.198364 
	C573.813660,708.731506 597.089050,702.794067 619.075745,691.179565 
	C643.471313,678.292480 664.760742,661.582947 678.567627,637.343079 
	C698.923889,601.605103 718.292603,565.304688 738.076111,529.240723 
	C765.677429,478.925354 793.275269,428.608063 820.859070,378.283142 
	C821.364258,377.361359 821.675537,376.333313 822.222961,375.000336 
	C767.366211,375.000336 713.062622,374.980560 658.759460,375.115387 
	C657.416443,375.118713 655.571045,376.534332 654.820557,377.801056 
	C650.509644,385.077759 646.458740,392.508514 641.998779,400.555603 
M992.092407,498.559753 
	C1004.715576,476.266693 1006.403198,453.057251 998.210632,428.892487 
	C984.633850,388.847168 938.661316,364.866516 898.100769,376.798431 
	C855.606934,389.299133 830.899231,428.362213 837.960388,471.880951 
	C843.895569,508.459900 876.515991,538.007935 913.502441,540.060425 
	C947.627075,541.954163 973.607666,527.977234 992.092407,498.559753 
z"/>
<path fill="#0F1115" opacity="1.000000" stroke="none" 
	d="
M470.840759,656.778687 
	C462.362732,672.229797 453.970490,687.306396 445.786865,702.495361 
	C444.027161,705.761353 442.110962,707.130920 438.132416,707.117432 
	C386.148499,706.940918 334.163788,707.000122 282.179260,707.000122 
	C280.569305,707.000122 278.959320,707.000183 276.626312,707.000183 
	C282.964600,695.391968 288.951294,684.373779 294.987183,673.382629 
	C321.579132,624.959961 348.188538,576.546814 374.785248,528.126770 
	C401.699219,479.129059 428.749908,430.205170 455.322327,381.022888 
	C458.443390,375.246216 461.688507,373.736755 467.867371,373.768951 
	C518.350952,374.031952 568.836548,373.917053 619.321533,373.917053 
	C621.148438,373.917053 622.975342,373.917053 625.786926,373.917053 
	C622.537476,380.038788 619.639893,385.660339 616.597717,391.202545 
	C596.242798,428.284790 575.857300,465.350250 555.481262,502.420929 
	C532.547791,544.144287 509.605347,585.862732 486.686340,627.594055 
	C481.417084,637.188354 476.227448,646.826416 470.840759,656.778687 
z"/>
<path fill="#0F1115" opacity="1.000000" stroke="none" 
	d="
M158.554031,561.573120 
	C179.793701,523.043518 200.782394,484.793823 221.839630,446.581879 
	C233.735336,424.995117 251.574753,409.257629 272.228394,396.547424 
	C291.110504,384.927460 311.438751,376.973785 333.660553,374.530396 
	C337.290619,374.131256 340.962219,373.950684 344.615173,373.944000 
	C371.107727,373.895538 397.600372,373.915894 424.093018,373.924225 
	C425.073029,373.924530 426.053040,374.025085 427.916840,374.127472 
	C423.969147,381.473602 420.305359,388.416626 416.528992,395.297882 
	C396.336792,432.091919 376.121002,468.873016 355.904663,505.653839 
	C332.811035,547.669495 309.692078,589.671143 286.615692,631.696228 
	C273.521332,655.542725 260.479370,679.417969 247.448654,703.299377 
	C246.220230,705.550720 245.141144,707.109802 241.941238,707.101257 
	C188.289871,706.958313 134.638031,706.997498 80.986282,706.990234 
	C80.502708,706.990173 80.019142,706.910156 78.948120,706.815552 
	C105.496140,658.341492 131.913940,610.105103 158.554031,561.573120 
z"/>
<path fill="#0F1115" opacity="1.000000" stroke="none" 
	d="
M642.159180,400.221313 
	C646.458740,392.508514 650.509644,385.077759 654.820557,377.801056 
	C655.571045,376.534332 657.416443,375.118713 658.759460,375.115387 
	C713.062622,374.980560 767.366211,375.000336 822.222961,375.000336 
	C821.675537,376.333313 821.364258,377.361359 820.859070,378.283142 
	C793.275269,428.608063 765.677429,478.925354 738.076111,529.240723 
	C718.292603,565.304688 698.923889,601.605103 678.567627,637.343079 
	C664.760742,661.582947 643.471313,678.292480 619.075745,691.179565 
	C597.089050,702.794067 573.813660,708.731506 548.754761,708.198364 
	C523.958984,707.670715 499.143188,708.082947 473.464020,708.082947 
	C476.395874,702.648132 479.003418,697.741211 481.676636,692.870300 
	C509.129211,642.848816 536.608032,592.841797 564.048035,542.813477 
	C590.051147,495.404877 616.016724,447.975708 642.159180,400.221313 
z"/>
<path fill="#0F1115" opacity="1.000000" stroke="none" 
	d="
M991.968201,498.905609 
	C973.607666,527.977234 947.627075,541.954163 913.502441,540.060425 
	C876.515991,538.007935 843.895569,508.459900 837.960388,471.880951 
	C830.899231,428.362213 855.606934,389.299133 898.100769,376.798431 
	C938.661316,364.866516 984.633850,388.847168 998.210632,428.892487 
	C1006.403198,453.057251 1004.715576,476.266693 991.968201,498.905609 
z"/>
</svg>